<?xml version="1.0" standalone="no"?>
<!DOCTYPE svg PUBLIC "-//W3C//DTD SVG 20010904//EN"
 "http://www.w3.org/TR/2001/REC-SVG-20010904/DTD/svg10.dtd">
<svg version="1.0" xmlns="http://www.w3.org/2000/svg"
 width="700.000000pt" height="700.000000pt" viewBox="0 0 700.000000 700.000000"
 preserveAspectRatio="xMidYMid meet">
<metadata>
Created by potrace 1.11, written by Peter Selinger 2001-2013
</metadata>
<g transform="translate(0.000000,700.000000) scale(0.100000,-0.100000)"
fill="#000000" stroke="none">
<path d="M3249 6995 c-2 -2 -35 -6 -74 -9 -483 -41 -984 -199 -1420 -450 -352
-202 -684 -480 -941 -789 -72 -86 -274 -360 -274 -371 0 -2 -22 -40 -49 -83
-86 -139 -259 -503 -286 -603 -3 -14 -10 -34 -15 -45 -45 -101 -134 -473 -155
-645 -3 -25 -8 -54 -10 -65 -26 -132 -27 -708 -1 -840 2 -11 7 -45 10 -76 4
-31 9 -67 11 -80 3 -13 7 -38 9 -55 22 -159 135 -538 221 -738 244 -570 576
-999 1106 -1429 19 -15 95 -68 169 -117 74 -50 140 -94 146 -98 20 -14 61 -36
164 -91 263 -140 519 -238 793 -305 201 -50 346 -74 562 -95 90 -9 592 -7 630
2 11 3 49 8 85 12 36 4 74 9 85 11 10 2 37 6 60 9 98 14 362 79 495 121 243
77 522 203 730 329 91 55 303 198 326 220 6 5 29 24 50 40 167 131 329 288
513 500 105 120 284 381 372 540 39 70 139 272 139 279 0 3 13 35 30 70 80
175 191 561 225 786 3 19 7 46 10 60 2 14 7 50 11 80 4 30 8 69 11 85 8 69 10
547 2 629 -13 133 -25 234 -34 276 -3 14 -8 41 -11 60 -3 19 -12 64 -20 100
-8 36 -17 76 -20 90 -3 14 -9 41 -13 60 -12 48 -79 270 -90 295 -5 11 -30 74
-56 140 -48 122 -147 327 -204 423 -17 29 -31 55 -31 58 0 3 -5 10 -10 17 -6
7 -37 54 -71 106 -239 370 -603 742 -959 981 -36 24 -66 47 -68 52 -2 4 -8 8
-12 8 -5 0 -48 24 -97 54 -328 199 -728 354 -1113 430 -71 14 -153 28 -175 31
-87 10 -154 18 -170 22 -23 6 -581 14 -586 8z m526 -239 c39 -4 86 -9 105 -12
19 -2 55 -7 80 -10 77 -10 290 -53 386 -79 104 -28 339 -107 399 -134 332
-150 566 -290 795 -475 163 -131 393 -361 502 -502 33 -42 42 -53 54 -67 63
-73 234 -348 311 -500 122 -244 252 -614 278 -793 3 -21 8 -45 11 -53 2 -8 7
-30 10 -50 2 -20 7 -47 10 -59 3 -13 7 -43 10 -65 3 -23 7 -51 9 -62 25 -120
25 -628 1 -762 -2 -10 -7 -44 -11 -77 -8 -67 -11 -85 -30 -181 -8 -38 -17 -83
-20 -100 -3 -16 -12 -55 -20 -85 -9 -30 -18 -63 -20 -72 -15 -67 -91 -282
-136 -388 -88 -205 -295 -572 -331 -588 -5 -2 -8 -8 -8 -14 0 -5 -30 -49 -67
-97 -306 -398 -691 -718 -1123 -934 -139 -70 -177 -87 -265 -122 -22 -9 -49
-20 -60 -24 -80 -35 -361 -117 -455 -135 -257 -47 -235 -44 -450 -65 -83 -8
-496 -6 -535 3 -11 2 -49 7 -85 11 -82 8 -124 15 -265 41 -401 74 -843 261
-1206 509 -267 183 -530 431 -731 690 -330 424 -560 951 -642 1470 -34 221
-41 309 -39 550 1 237 3 260 40 515 2 19 15 85 29 147 131 613 433 1170 874
1613 103 104 212 203 265 242 5 5 29 24 53 43 199 161 543 356 807 458 182 71
455 148 609 173 21 3 48 7 59 10 12 2 39 6 62 9 22 4 51 8 65 10 14 2 65 7
115 10 49 4 91 8 92 9 6 6 402 -1 468 -8z"/>
<path d="M4655 6205 c-5 -2 -82 -22 -170 -45 -88 -23 -191 -51 -229 -62 -38
-11 -76 -21 -85 -23 -38 -8 -214 -80 -316 -130 -215 -106 -418 -254 -593 -434
-127 -130 -260 -303 -268 -350 -5 -26 5 -71 45 -190 28 -86 51 -162 51 -168 0
-8 -16 -13 -42 -14 -136 -2 -229 -16 -258 -37 -62 -46 -277 -663 -369 -1062
-42 -180 -63 -285 -63 -314 1 -27 58 -124 123 -207 16 -20 29 -40 29 -43 0 -4
-29 -5 -65 -3 -53 4 -69 1 -94 -17 -42 -29 -50 -54 -67 -191 -35 -284 -24
-434 41 -600 51 -126 164 -273 285 -368 48 -39 219 -122 255 -125 14 -2 22
-60 14 -102 -4 -19 -10 -75 -14 -125 -3 -49 -8 -108 -10 -130 -2 -22 -7 -71
-10 -110 -3 -38 -8 -90 -10 -115 -2 -25 -7 -76 -10 -115 -3 -38 -8 -88 -10
-110 -23 -209 -25 -297 -7 -328 45 -77 162 -73 204 7 6 11 12 38 13 60 2 23 6
68 9 101 3 33 8 92 11 130 3 39 7 88 10 110 10 92 19 194 30 345 3 47 8 101
10 120 2 19 7 67 10 105 3 39 8 79 10 90 2 11 4 22 4 25 1 3 16 6 34 6 257 3
539 166 683 394 55 88 105 213 121 300 2 14 10 53 18 86 8 34 16 73 19 85 2
13 10 47 16 74 6 28 14 61 16 75 2 14 7 36 10 50 3 14 8 36 11 50 2 14 13 66
25 115 11 50 24 108 29 130 27 127 59 280 75 351 17 78 17 81 -2 120 -21 43
-53 63 -108 67 -20 2 -38 6 -41 9 -3 3 46 54 110 114 84 79 119 119 129 149
13 35 51 190 136 550 12 50 42 173 66 275 25 102 61 250 80 330 19 80 51 210
70 290 19 80 42 172 50 205 8 33 16 69 19 80 2 11 24 104 49 207 46 195 49
243 17 272 -20 18 -82 44 -96 41z m-285 -320 c0 -5 -54 -88 -176 -275 -234
-358 -555 -994 -741 -1470 -36 -91 -68 -168 -72 -173 -4 -4 -32 23 -62 59 -30
37 -58 72 -64 78 -34 38 -85 99 -120 141 -22 27 -79 95 -127 151 -65 77 -85
108 -81 124 3 11 8 22 12 24 9 6 95 15 210 22 126 7 133 8 171 30 29 18 50 58
50 98 0 12 -29 109 -65 216 -36 107 -65 200 -65 207 0 19 116 160 210 253 217
216 466 369 765 471 145 50 155 53 155 44z m-12 -557 c-21 -84 -40 -165 -43
-180 -3 -15 -22 -98 -44 -183 l-38 -156 -44 -21 c-24 -12 -88 -43 -142 -70
-54 -26 -100 -48 -103 -48 -2 0 0 8 5 18 5 9 22 44 39 77 56 112 134 260 199
375 62 109 202 340 206 340 2 0 -14 -69 -35 -152z m-202 -835 c-3 -10 -10 -40
-16 -68 -5 -27 -19 -88 -30 -135 -12 -47 -23 -92 -25 -100 -25 -116 -38 -146
-78 -183 -42 -39 -144 -136 -286 -271 -101 -97 -117 -143 -72 -206 31 -43 66
-53 229 -64 23 -2 44 -5 47 -7 2 -3 -7 -56 -21 -119 -26 -120 -30 -135 -40
-185 -13 -70 2 -60 -274 -185 -58 -26 -139 -63 -180 -82 -109 -52 -120 -54
-113 -26 6 22 70 267 99 378 15 57 62 208 113 368 44 137 143 406 152 417 5 5
9 15 9 23 0 7 8 32 19 55 10 23 35 84 57 135 l38 92 126 61 c69 33 150 73 180
89 64 34 73 36 66 13z m-1303 -275 c8 -13 23 -32 33 -43 26 -28 361 -427 391
-466 11 -13 6 -37 -23 -130 -43 -138 -55 -169 -63 -168 -3 0 -44 48 -91 105
-47 58 -92 113 -100 122 -9 9 -73 85 -143 169 -113 135 -126 155 -118 175 6
13 26 76 47 141 20 64 40 117 44 117 4 0 14 -10 23 -22z m33 -809 c120 -144
223 -267 227 -275 4 -8 -7 -75 -27 -156 -35 -142 -63 -274 -91 -418 -8 -41
-17 -84 -19 -96 -2 -12 -7 -45 -11 -75 -4 -30 -8 -56 -10 -59 -2 -3 -6 -30
-10 -60 -3 -29 -7 -56 -9 -59 -2 -3 -7 -37 -11 -76 -3 -38 -10 -74 -14 -78
-15 -15 -152 66 -215 127 -165 161 -221 334 -191 596 l10 95 50 -1 c28 0 85
-3 128 -7 95 -8 138 8 163 61 26 56 14 90 -94 244 -55 79 -114 164 -131 191
l-32 47 16 78 c9 42 18 82 19 87 2 6 7 29 11 53 4 23 11 42 15 42 4 0 105
-118 226 -261z m900 -618 c-3 -5 -8 -25 -11 -44 -22 -135 -78 -335 -112 -400
-90 -170 -280 -301 -470 -324 l-46 -5 7 60 c4 33 9 71 11 84 3 12 8 43 10 68
3 25 10 68 15 95 5 28 12 66 15 85 3 19 8 42 10 50 2 8 7 31 10 50 3 19 7 35
8 37 3 2 178 83 372 172 50 23 108 50 130 60 45 22 59 25 51 12z"/>
<path d="M4494 3376 c-37 -16 -63 -60 -127 -212 -89 -213 -161 -475 -182 -664
-3 -30 -8 -66 -10 -80 -4 -22 -12 -144 -19 -293 -5 -85 56 -145 132 -132 44 7
64 21 82 55 18 32 17 25 24 171 3 68 8 135 10 149 3 14 7 52 11 85 11 103 53
295 89 405 53 163 66 196 127 326 16 34 29 71 29 83 0 40 -30 89 -65 105 -40
19 -60 20 -101 2z"/>
<path d="M4183 1821 c-45 -28 -56 -56 -58 -136 -1 -86 8 -118 47 -150 60 -50
156 -22 177 52 11 41 6 170 -8 196 -27 51 -107 70 -158 38z"/>
</g>
</svg>
